<svg width="32" height="32" viewBox="0 0 32 32" fill="none" xmlns="http://www.w3.org/2000/svg">
  <defs>
    <linearGradient id="cursorGradient" x1="0%" y1="0%" x2="100%" y2="100%">
      <stop offset="0%" stop-color="#FFE3D3" />
      <stop offset="100%" stop-color="#EE977B" />
    </linearGradient>
    <filter id="cursorShadow" x="-20%" y="-20%" width="140%" height="140%">
      <feDropShadow dx="1" dy="2" stdDeviation="2" flood-color="#000" flood-opacity="0.3"/>
    </filter>
  </defs>
  <!-- Small bubbly hand (Figma style pointing hand) -->
  <path d="M12 4 C11 4 10 5 10 6 L10 16 L8 14 C7 13 5 13 4 15 L9 22 C11 25 14 27 18 27 C22 27 25 24 25 20 L25 12 C25 11 24 10 23 10 C22 10 21 11 21 12 L21 14 L20 14 L20 9 C20 8 19 7 18 7 C17 7 16 8 16 9 L16 14 L15 14 L15 6 C15 5 14 4 13 4 L12 4 Z" fill="url(#cursorGradient)" stroke="#FFFFFF" stroke-width="2.2" stroke-linejoin="round" filter="url(#cursorShadow)"/>
</svg>
